<svg width="25" height="24" viewBox="0 0 25 24" fill="none" xmlns="http://www.w3.org/2000/svg">
<g id="home">
<path id="coolicon" d="M12.833 22C7.31016 22 2.83301 17.5228 2.83301 12C2.83301 6.47715 7.31016 2 12.833 2C18.3559 2 22.833 6.47715 22.833 12C22.8269 17.5203 18.3533 21.9939 12.833 22ZM4.83301 12.172C4.88032 16.5732 8.47412 20.1095 12.8755 20.086C17.277 20.0622 20.8325 16.4875 20.8325 12.086C20.8325 7.68451 17.277 4.10977 12.8755 4.086C8.47412 4.06246 4.88032 7.59876 4.83301 12V12.172ZM10.833 16.5V7.5L16.833 12L10.833 16.5Z" fill="#9DA0A8"/>
</g>
</svg>
