<svg width="25" height="24" viewBox="0 0 25 24" fill="none" xmlns="http://www.w3.org/2000/svg">
<path d="M7.16797 8C7.16797 5.23858 9.40655 3 12.168 3C14.9294 3 17.168 5.23858 17.168 8C17.168 10.7614 14.9294 13 12.168 13C9.40655 13 7.16797 10.7614 7.16797 8ZM12.168 11C13.8248 11 15.168 9.65685 15.168 8C15.168 6.34315 13.8248 5 12.168 5C10.5111 5 9.16797 6.34315 9.16797 8C9.16797 9.65685 10.5111 11 12.168 11Z" fill="#9DA0A8"/>
<path d="M6.51111 16.3431C5.01082 17.8434 4.16797 19.8783 4.16797 22H6.16797C6.16797 20.4087 6.80011 18.8826 7.92533 17.7574C9.05055 16.6321 10.5767 16 12.168 16C13.7593 16 15.2854 16.6321 16.4106 17.7574C17.5358 18.8826 18.168 20.4087 18.168 22H20.168C20.168 19.8783 19.3251 17.8434 17.8248 16.3431C16.3245 14.8429 14.2897 14 12.168 14C10.0462 14 8.01141 14.8429 6.51111 16.3431Z" fill="#9DA0A8"/>
</svg>
